<svg width="126" height="172" viewBox="0 0 126 172" fill="none" xmlns="http://www.w3.org/2000/svg">
<path d="M125.573 74.777C124.96 72.9089 123.391 71.6667 121.638 71.6667H70.9903L100.205 6.966C101.123 4.93067 100.649 2.44144 99.0679 1.02722C98.3045 0.339222 97.3859 0 96.4715 0C95.4942 0 94.5169 0.391778 93.7326 1.161L62.916 31.476L1.45479 91.9388C0.129342 93.2431 -0.348824 95.3501 0.263565 97.2182C0.875954 99.0863 2.44048 100.333 4.19376 100.333H54.8417L25.6274 165.034C24.7088 167.069 25.1828 169.559 26.7641 170.973C27.5275 171.661 28.446 172 29.3604 172C30.3377 172 31.315 171.608 32.0994 170.839L62.916 140.524L124.377 80.0612C125.707 78.7569 126.181 76.6499 125.573 74.777Z" fill="#FFAC33"/>
</svg>
